Coordinates
version=1
nRows=26
nColumns=24
inDegrees=yes

Units are S.I. units (second, meters, Newtons, ...)
Angles are in degrees.

endheader
time	pelvis_tilt	pelvis_list	pelvis_rotation	pelvis_tx	pelvis_ty	pelvis_tz	hip_flexion_r	hip_adduction_r	hip_rotation_r	knee_angle_r	ankle_angle_r	subtalar_angle_r	mtp_angle_r	hip_flexion_l	hip_adduction_l	hip_rotation_l	knee_angle_l	ankle_angle_l	subtalar_angle_l	mtp_angle_l	lumbar_extension	lumbar_bending	lumbar_rotation
      6.29000000	     -7.67319872	     -5.37938686	      3.60021292	     -0.84896556	      0.00279172	     -0.26962137	      9.74033620	      9.48759854	      2.00935493	     -8.81474555	      1.24307391	      0.51827114	     11.50027188	     23.89964851	     -8.15910493	     -0.21843700	    -57.22843203	     -8.81479626	     -7.78039031	     18.60720497	      9.20853077	      5.84120647	      2.20962291
      6.29500000	     -7.67628434	     -5.22566832	      3.27770134	     -0.84446644	      0.00299726	     -0.26877621	      9.23353852	      9.42645195	      2.30937492	     -8.48059261	      1.34913629	      0.65437653	     11.53988988	     24.34694277	     -7.95586939	     -0.50455552	    -56.64988509	     -8.35138692	     -7.70177157	     18.74064053	      9.10604629	      5.76081306	      2.55600446
      6.30000000	     -7.64498140	     -5.07463783	      2.94491562	     -0.83998251	      0.00315041	     -0.26789778	      8.69831118	      9.37505701	      2.59303929	     -8.15516510	      1.48772429	      0.72021632	     11.60709592	     24.74884722	     -7.77711042	     -0.81804819	    -56.03524242	     -7.90099047	     -7.62823464	     18.83725329	      8.96761980	      5.69368855	      2.93754244
      6.30500000	     -7.61516989	     -4.92799343	      2.63503051	     -0.83550870	      0.00327875	     -0.26708230	      8.16531531	      9.31570485	      2.87488786	     -7.82386811	      1.59408134	      0.77527741	     11.68292671	     25.14504577	     -7.58414290	     -1.08348996	    -55.37331154	     -7.47878160	     -7.56464024	     18.88867325	      8.83254908	      5.62281639	      3.27264576
      6.31000000	     -7.52500885	     -4.80202300	      2.30147822	     -0.83104824	      0.00343735	     -0.26624923	      7.56339521	      9.28178284	      3.19846538	     -7.47597253	      1.61604411	      0.76625954	     11.79676995	     25.45947402	     -7.43458246	     -1.37357633	    -54.66911422	     -7.06022841	     -7.51366851	     18.83355292	      8.62662617	      5.58146086	      3.64363584
      6.31500000	     -7.48908328	     -4.65644308	      1.99313652	     -0.82662017	      0.00349551	     -0.26547369	      7.04310758	      9.21441879	      3.48635796	     -7.16658193	      1.69020669	      0.75395237	     11.92384295	     25.82432523	     -7.24077874	     -1.61197777	    -53.91797912	     -6.64877146	     -7.44274751	     18.78138485	      8.48221635	      5.50944712	      3.96153545
      6.32000000	     -7.45026150	     -4.51404320	      1.69517950	     -0.82218598	      0.00351855	     -0.26472261	      6.52440337	      9.14484157	      3.77176411	     -6.86379149	      1.76723266	      0.72153908	     12.04186148	     26.17581961	     -7.04794230	     -1.82806120	    -53.12622175	     -6.26672926	     -7.37632040	     18.69983518	      8.33722471	      5.43761928	      4.26279576
      6.32500000	     -7.40168793	     -4.37179635	      1.38900908	     -0.81775850	      0.00352759	     -0.26399441	      6.00143000	      9.07152511	      4.07810659	     -6.57036408	      1.83862834	      0.65910394	     12.15006476	     26.49739549	     -6.85969243	     -2.03780681	    -52.28606708	     -5.90109148	     -7.30078024	     18.57981132	      8.18506460	      5.37123417	      4.56753591
      6.33000000	     -7.35717386	     -4.22727932	      1.09751498	     -0.81337115	      0.00348959	     -0.26329459	      5.49262132	      8.99022000	      4.38996073	     -6.28779415	      1.91481945	      0.56866560	     12.23739190	     26.81994681	     -6.66735071	     -2.23131044	    -51.41429062	     -5.55134063	     -7.21575681	     18.43572830	      8.02581679	      5.29727138	      4.86158960
      6.33500000	     -7.39195145	     -4.10170334	      0.87714553	     -0.80897945	      0.00335482	     -0.26271242	      5.08538822	      8.91118549	      4.59055778	     -6.02533356	      2.02846844	      0.53994323	     12.27625310	     27.23177579	     -6.43664820	     -2.26106594	    -50.49973914	     -5.28918354	     -7.12600240	     18.37837643	      7.97353977	      5.22349633	      5.06838801
      6.34000000	     -7.32296327	     -3.92201409	      0.51910907	     -0.80461222	      0.00329156	     -0.26191067	      4.59466960	      8.80172967	      4.97366739	     -5.83760456	      2.17485440	      0.40182075	     12.32371808	     27.45504510	     -6.25775804	     -2.52003016	    -49.49745255	     -4.93125013	     -7.01693868	     18.22599999	      7.78553262	      5.10887305	      5.41513224
      6.34500000	     -7.20015589	     -3.79482231	      0.18023898	     -0.80024270	      0.00329115	     -0.26122889	      4.01618386	      8.73336908	      5.42517127	     -5.58546064	      2.17249918	      0.15697039	     12.27672324	     27.61876563	     -6.11717282	     -2.72202124	    -48.47900712	     -4.58936283	     -6.88649142	     17.87779010	      7.53890704	      5.06774217	      5.76240003
      6.35000000	     -7.18578672	     -3.64687516	     -0.10542499	     -0.79586587	      0.00310593	     -0.26059045	      3.58808267	      8.63572450	      5.76167474	     -5.39239800	      2.30857841	     -0.02653793	     12.24788174	     27.89664475	     -5.93384212	     -2.86799048	    -47.41925643	     -4.27108732	     -6.73693323	     17.64063438	      7.42538375	      4.98033548	      6.00752913
      6.35500000	     -7.21865331	     -3.50640273	     -0.34724121	     -0.79157042	      0.00286704	     -0.26004922	      3.25389549	      8.53693073	      5.99505051	     -5.26432667	      2.45652186	     -0.13902982	     12.22686126	     28.21647625	     -5.71237070	     -2.86883841	    -46.30355692	     -4.02904369	     -6.59184239	     17.50860739	      7.34652219	      4.89004930	      6.20061074
      6.36000000	     -7.11179055	     -3.37249381	     -0.71000661	     -0.78721512	      0.00276896	     -0.25938866	      2.73771041	      8.45082483	      6.48132962	     -5.10637901	      2.54893684	     -0.37395906	     12.04691438	     28.32541657	     -5.58839703	     -3.06988663	    -45.13568332	     -3.72185191	     -6.44477363	     17.12243994	      7.11441029	      4.83914918	      6.57503906
      6.36500000	     -7.08688466	     -3.23409806	     -0.99673491	     -0.78285713	      0.00253756	     -0.25880955	      2.33441699	      8.35315687	      6.86374660	     -4.98845822	      2.70395160	     -0.59476118	     11.84266808	     28.52094287	     -5.41455755	     -3.14613261	    -43.92897275	     -3.43641232	     -6.26684192	     16.74635831	      6.98321584	      4.75698863	      6.82229217
      6.37000000	     -7.07726420	     -3.10834508	     -1.27712038	     -0.77850684	      0.00225918	     -0.25826993	      1.96443560	      8.26369119	      7.20805879	     -4.90039618	      2.88846178	     -0.76510256	     11.63690132	     28.71542494	     -5.25114932	     -3.19500147	    -42.67883237	     -3.18727848	     -6.10791869	     16.38623071	      6.86582168	      4.68843768	      7.05368741
      6.37500000	     -7.06515251	     -2.99008875	     -1.54900905	     -0.77414551	      0.00195183	     -0.25775205	      1.60181150	      8.17887783	      7.55037308	     -4.83496943	      3.08982762	     -0.93341999	     11.40112523	     28.88638890	     -5.09187410	     -3.21289787	    -41.38624448	     -2.95651388	     -5.95808916	     15.98462973	      6.74711056	      4.62363470	      7.28373261
      6.38000000	     -7.05759054	     -2.87674648	     -1.81629194	     -0.76976798	      0.00160991	     -0.25727532	      1.25103853	      8.09346101	      7.88935464	     -4.78636548	      3.30829807	     -1.09326636	     11.13964741	     29.04073912	     -4.93630684	     -3.21496628	    -40.05312858	     -2.73660180	     -5.81709814	     15.52377579	      6.63416065	      4.56813105	      7.50342715
      6.38500000	     -7.09740046	     -2.76996785	     -2.04720387	     -0.76529828	      0.00117384	     -0.25682458	      0.94962023	      8.01174638	      8.15489429	     -4.73562274	      3.53898645	     -1.21362683	     10.97167000	     29.22915104	     -4.78211305	     -3.19541148	    -38.67748282	     -2.55648981	     -5.69604953	     15.14467606	      6.59437318	      4.50217763	      7.63950523
      6.39000000	     -7.06151025	     -2.68016792	     -2.31944587	     -0.76094443	      0.00081184	     -0.25639770	      0.59057443	      7.94250359	      8.50708862	     -4.73104426	      3.76798959	     -1.36143595	     10.67470261	     29.31282861	     -4.64779523	     -3.14005816	    -37.27607170	     -2.35567719	     -5.58508234	     14.49931947	      6.43698231	      4.47459495	      7.90370656
      6.39500000	     -7.08308056	     -2.59123886	     -2.55156431	     -0.75647975	      0.00034630	     -0.25600375	      0.28749834	      7.87037722	      8.79384672	     -4.72220791	      4.02621548	     -1.46743378	     10.41634784	     29.44431694	     -4.50849923	     -3.06918162	    -35.84671611	     -2.15210254	     -5.46265591	     13.84092250	      6.36930112	      4.43289514	      8.07640279
      6.40000000	     -7.17121955	     -2.52122417	     -2.72300278	     -0.75202194	     -0.00024394	     -0.25566025	      0.07570484	      7.81909755	      8.97243761	     -4.73574878	      4.26635977	     -1.54432608	     10.37086129	     29.65048945	     -4.37481535	     -2.92638543	    -34.38744560	     -2.04631429	     -5.30876999	     13.52313778	      6.37648731	      4.39596619	      8.14360518
      6.40500000	     -7.08023780	     -2.45698164	     -2.94150234	     -0.74747321	     -0.00063674	     -0.25532567	     -0.37025061	      7.75527372	      9.30121900	     -4.70919484	      4.55080059	     -1.63220689	      9.92718867	     29.62106995	     -4.25409981	     -2.83467817	    -32.94067597	     -1.61972675	     -5.05805288	     12.21713480	      6.19133209	      4.37238314	      8.30636478
      6.41000000	     -7.21672645	     -2.38338617	     -3.15499292	     -0.74296234	     -0.00128664	     -0.25498498	     -0.51607217	      7.69468860	      9.48535764	     -4.75174007	      4.78931214	     -1.64412710	      9.93272946	     29.83473834	     -4.14783898	     -2.74689653	    -31.42027448	     -1.60380324	     -5.02968663	     11.86011185	      6.25569580	      4.34627953	      8.45488921
      6.41500000	     -7.25954980	     -2.30122814	     -3.37548225	     -0.73839456	     -0.00184640	     -0.25461461	     -0.78018813	      7.61513739	      9.70935061	     -4.77126520	      5.03186006	     -1.64965327	      9.90972393	     29.91273068	     -4.03619771	     -2.65669828	    -29.86994393	     -1.52484640	     -4.98358881	     11.29724667	      6.22645120	      4.29172824	      8.61332309
